<?xml version="1.0" encoding="UTF-8"?>
<svg width="225" height="225" viewBox="0 0 225 225" fill="none" xmlns="http://www.w3.org/2000/svg">
<path d="M109.632 190.937C152.681 190.937 187.604 155.841 187.604 112.447C187.604 69.0524 152.681 34.1294 109.632 34.1294C66.5836 34.1294 31.6606 69.2252 31.6606 112.62C31.6606 156.014 66.5836 190.937 109.632 190.937Z" fill="#EAEEF9"/>
<path d="M148.011 189.899C136.081 190.245 121.905 189.899 111.704 189.727C101.677 190.072 87.3276 190.245 75.3984 189.899C87.1547 183.157 91.3039 170.709 91.8226 162.411H131.241C132.278 170.536 136.427 183.157 148.011 189.899Z" fill="url(#paint0_linear_1340_22183)"/>
<g filter="url(#filter0_d_1340_22183)">
<path d="M186.223 57.8147V161.028C186.223 163.621 184.149 165.523 181.901 165.523H42.3822C39.9618 165.523 38.0601 163.448 38.0601 161.028V57.8147C38.0601 55.3943 40.1347 53.3197 42.3822 53.3197H181.728C184.322 53.3197 186.223 55.3943 186.223 57.8147Z" fill="white"/>
</g>
<path d="M186.223 57.8147V146.678H38.0601V57.8147C38.0601 55.3943 40.1347 53.3197 42.3822 53.3197H181.728C184.322 53.3197 186.223 55.3943 186.223 57.8147Z" fill="#989FB0"/>
<path d="M180.511 59.0252H43.0669V141.665H180.684V59.0252H180.511Z" fill="white"/>
<path d="M111.875 159.365C113.949 159.365 115.505 157.809 115.505 155.735C115.505 153.66 113.949 152.104 111.875 152.104C109.8 152.104 108.244 153.66 108.244 155.735C108.244 157.809 109.8 159.365 111.875 159.365Z" fill="#D0D8E6"/>
<path d="M172.56 74.2391V84.7851C172.56 86.3411 171.35 87.5513 169.794 87.5513H53.6148C52.0588 87.5513 50.8486 86.3411 50.8486 84.7851V74.2391C50.8486 72.6831 52.0588 71.4729 53.6148 71.4729H169.621C171.35 71.3 172.56 72.6831 172.56 74.2391Z" fill="#E5E9F1"/>
<path d="M67.1048 71.2999V87.7241H53.4468C51.8909 87.7241 50.6807 86.5139 50.6807 84.9579V74.4119C50.6807 72.8559 51.8909 71.6457 53.4468 71.6457L67.1048 71.2999Z" fill="#E3EAF2"/>
<path opacity="0.8" d="M172.56 96.3682V106.914C172.56 108.47 171.35 109.68 169.794 109.68H53.6148C52.0588 109.68 50.8486 108.47 50.8486 106.914V96.3682C50.8486 94.8122 52.0588 93.602 53.6148 93.602H169.621C171.35 93.4291 172.56 94.8122 172.56 96.3682Z" fill="#E5E9F1"/>
<path d="M67.1048 71.2999V87.7241H53.4468C51.8909 87.7241 50.6807 86.5139 50.6807 84.9579V74.4119C50.6807 72.8559 51.8909 71.6457 53.4468 71.6457L67.1048 71.2999Z" fill="#989FB0"/>
<path d="M58.4576 83.056C58.1118 83.056 57.766 82.8831 57.5931 82.7102L54.9998 80.1169C54.4812 79.5983 54.4812 78.9067 54.9998 78.3881C55.5185 77.8694 56.21 77.8694 56.7287 78.3881L58.2847 79.944L62.0882 76.1405C62.6068 75.6219 63.2984 75.6219 63.817 76.1405C64.3357 76.6592 64.3357 77.3507 63.817 77.8694L59.1491 82.5373C58.9762 82.8831 58.6304 83.056 58.4576 83.056Z" fill="white"/>
<path opacity="0.5" d="M172.56 118.498V129.044C172.56 130.6 171.35 131.81 169.794 131.81H53.6148C52.0588 131.81 50.8486 130.6 50.8486 129.044V118.498C50.8486 116.942 52.0588 115.732 53.6148 115.732H169.621C171.35 115.559 172.56 116.769 172.56 118.498Z" fill="#E5E9F1"/>
<path opacity="0.3" d="M172.565 140.454V141.665H50.6807V140.454C50.6807 138.898 51.8909 137.688 53.4468 137.688H169.626C171.355 137.688 172.565 138.898 172.565 140.454Z" fill="#E5E9F1"/>
<path d="M31.6577 112.62H27.6813C27.3355 112.62 26.9897 112.274 26.9897 111.928C26.9897 111.582 27.3355 111.236 27.6813 111.236H31.6577C32.0034 111.236 32.3492 111.582 32.3492 111.928C32.1763 112.274 31.8306 112.62 31.6577 112.62Z" fill="white"/>
<path d="M25.4397 112.62H25.0939C24.7481 112.62 24.4023 112.274 24.4023 111.928C24.4023 111.582 24.7481 111.236 25.0939 111.236H25.4397C25.7854 111.236 26.1312 111.582 26.1312 111.928C26.1312 112.274 25.7854 112.62 25.4397 112.62Z" fill="white"/>
<path d="M28.0318 132.847C27.686 132.847 27.3402 132.674 27.1673 132.501L24.5741 129.908C24.0554 129.389 24.0554 128.698 24.5741 128.179C25.0927 127.661 25.7843 127.661 26.3029 128.179L27.8589 129.735L31.6624 125.932C32.181 125.413 32.8726 125.413 33.3912 125.932C33.9099 126.45 33.9099 127.142 33.3912 127.661L28.8962 132.156C28.5504 132.674 28.2047 132.847 28.0318 132.847Z" fill="white"/>
<path opacity="0.3" d="M43.9327 184.021V186.788H43.7598H14.1963H14.0234V184.021C14.0234 183.157 14.715 182.638 15.4065 182.638H42.5496C43.414 182.638 43.9327 183.33 43.9327 184.021Z" fill="#E5E9F1"/>
<path d="M48.7801 65.4219C49.6445 65.4219 50.3361 64.7304 50.3361 63.8659C50.3361 63.0015 49.6445 62.31 48.7801 62.31C47.9157 62.31 47.2241 63.0015 47.2241 63.8659C47.2241 64.7304 47.9157 65.4219 48.7801 65.4219Z" fill="#E3EAF2"/>
<path d="M53.7869 65.4219C54.6514 65.4219 55.3429 64.7304 55.3429 63.8659C55.3429 63.0015 54.6514 62.31 53.7869 62.31C52.9225 62.31 52.231 63.0015 52.231 63.8659C52.231 64.7304 52.9225 65.4219 53.7869 65.4219Z" fill="#E3EAF2"/>
<path d="M58.8035 65.4219C59.668 65.4219 60.3595 64.7304 60.3595 63.8659C60.3595 63.0015 59.668 62.31 58.8035 62.31C57.9391 62.31 57.2476 63.0015 57.2476 63.8659C57.2476 64.7304 57.9391 65.4219 58.8035 65.4219Z" fill="#E3EAF2"/>
<path d="M214.938 161.966C214.247 164.905 213.209 168.017 211.999 170.61C208.714 177.007 203.528 182.021 197.131 185.306C190.561 188.591 182.781 189.974 175.002 188.245C156.676 184.441 144.919 166.461 148.723 148.135C152.526 129.809 170.334 117.88 188.66 121.857C195.229 123.24 200.935 126.525 205.775 131.02C213.901 139.318 217.186 150.901 214.938 161.966Z" fill="url(#paint1_linear_1340_22183)"/>
<path d="M192.464 152.111H184.684V144.332C184.684 142.776 183.474 141.393 181.745 141.393C180.189 141.393 178.806 142.603 178.806 144.332V152.111H171.026C169.47 152.111 168.087 153.322 168.087 155.05C168.087 156.779 169.297 157.99 171.026 157.99H178.806V165.769C178.806 167.325 180.016 168.708 181.745 168.708C183.301 168.708 184.684 167.498 184.684 165.769V157.99H192.464C194.02 157.99 195.403 156.779 195.403 155.05C195.576 153.322 194.193 152.111 192.464 152.111Z" fill="white"/>
<path d="M9.37207 190.088L209.072 190.088" stroke="#989FB0" stroke-width="2.52809" stroke-miterlimit="10" stroke-linecap="round" stroke-linejoin="round"/>
<path d="M22.3198 101.917C25.1821 101.917 27.5024 99.5963 27.5024 96.734C27.5024 93.8717 25.1821 91.5514 22.3198 91.5514C19.4575 91.5514 17.1372 93.8717 17.1372 96.734C17.1372 99.5963 19.4575 101.917 22.3198 101.917Z" fill="#EAEEF9"/>
<path d="M17.1414 85.1049C19.0961 85.1049 20.6807 83.5202 20.6807 81.5655C20.6807 79.6108 19.0961 78.0262 17.1414 78.0262C15.1867 78.0262 13.6021 79.6108 13.6021 81.5655C13.6021 83.5202 15.1867 85.1049 17.1414 85.1049Z" fill="#EAEEF9"/>
<path d="M165.064 43.6284C167.019 43.6284 168.604 42.0438 168.604 40.0891C168.604 38.1343 167.019 36.5497 165.064 36.5497C163.11 36.5497 161.525 38.1343 161.525 40.0891C161.525 42.0438 163.11 43.6284 165.064 43.6284Z" fill="#EAEEF9"/>
<path d="M202.504 114.953C206.134 114.953 209.077 112.01 209.077 108.38C209.077 104.75 206.134 101.807 202.504 101.807C198.874 101.807 195.931 104.75 195.931 108.38C195.931 112.01 198.874 114.953 202.504 114.953Z" fill="#EAEEF9"/>
<defs>
<filter id="filter0_d_1340_22183" x="10.2511" y="39.4152" width="203.781" height="167.821" filterUnits="userSpaceOnUse" color-interpolation-filters="sRGB">
<feFlood flood-opacity="0" result="BackgroundImageFix"/>
<feColorMatrix in="SourceAlpha" type="matrix" values="0 0 0 0 0 0 0 0 0 0 0 0 0 0 0 0 0 0 127 0" result="hardAlpha"/>
<feOffset dy="13.9045"/>
<feGaussianBlur stdDeviation="13.9045"/>
<feColorMatrix type="matrix" values="0 0 0 0 0.397708 0 0 0 0 0.47749 0 0 0 0 0.575 0 0 0 0.27 0"/>
<feBlend mode="normal" in2="BackgroundImageFix" result="effect1_dropShadow_1340_22183"/>
<feBlend mode="normal" in="SourceGraphic" in2="effect1_dropShadow_1340_22183" result="shape"/>
</filter>
<linearGradient id="paint0_linear_1340_22183" x1="111.719" y1="189.132" x2="111.719" y2="164.514" gradientUnits="userSpaceOnUse">
<stop stop-color="#E8ECF5"/>
<stop offset="0.9913" stop-color="#BDC4D7"/>
</linearGradient>
<linearGradient id="paint1_linear_1340_22183" x1="147.977" y1="155.05" x2="215.641" y2="155.05" gradientUnits="userSpaceOnUse">
<stop stop-color="#B0BACC"/>
<stop offset="1" stop-color="#969EAE"/>
</linearGradient>
</defs>
</svg> 