<?xml version="1.0" encoding="UTF-8"?>
<svg width="183" height="184" viewBox="0 0 183 184" fill="none" xmlns="http://www.w3.org/2000/svg">
<path d="M125.9 101C128.164 101 130 99.1644 130 96.9C130 94.6356 128.164 92.8 125.9 92.8C123.635 92.8 121.8 94.6356 121.8 96.9C121.8 99.1644 123.635 101 125.9 101Z" fill="#EAEEF9"/>
<path d="M118.027 112.439C119.573 112.439 120.827 111.186 120.827 109.639C120.827 108.093 119.573 106.839 118.027 106.839C116.48 106.839 115.227 108.093 115.227 109.639C115.227 111.186 116.48 112.439 118.027 112.439Z" fill="#EAEEF9"/>
<path d="M27.3 44C28.8464 44 30.1 42.7464 30.1 41.2C30.1 39.6536 28.8464 38.4 27.3 38.4C25.7536 38.4 24.5 39.6536 24.5 41.2C24.5 42.7464 25.7536 44 27.3 44Z" fill="#EAEEF9"/>
<path d="M10.2 98C13.0719 98 15.4 95.6719 15.4 92.8C15.4 89.9281 13.0719 87.6 10.2 87.6C7.32812 87.6 5 89.9281 5 92.8C5 95.6719 7.32812 98 10.2 98Z" fill="#EAEEF9"/>
<path d="M73.3499 124.1C101.35 124.1 124.05 101.4 124.05 73.3C124.05 45.2 101.35 22.5 73.3499 22.5C45.3499 22.5 22.6499 45.2 22.6499 73.3C22.6499 101.4 45.3499 124.1 73.3499 124.1Z" fill="#EAEEF9"/>
<path d="M129.733 37.9021C131.636 37.9021 133.247 39.3589 133.247 41.3985V144.543C133.247 146.437 131.783 148.039 129.733 148.039H53.4556C51.5524 148.039 49.9419 146.583 49.9419 144.543V41.3985C49.9419 39.5046 51.4059 37.9021 53.4556 37.9021H129.733Z" fill="#CED7E2"/>
<path d="M133.247 48.6827V144.397C133.247 146.291 131.783 147.894 129.733 147.894H60.044L53.895 141.775L123.145 46.9345L129.147 44.7492L133.247 48.6827Z" fill="#BCC4CF"/>
<path d="M129.44 45.9147C129.44 45.332 129.001 44.7492 128.269 44.7492H55.0663C54.4806 44.7492 53.895 45.1863 53.895 45.9147V140.609C53.895 141.192 54.3342 141.775 55.0663 141.775H128.123C128.708 141.775 129.294 141.338 129.294 140.609L129.44 45.9147Z" fill="#D9DFEE"/>
<path d="M129.44 45.9147C129.44 45.332 129.001 44.7492 128.269 44.7492H55.0661C54.4805 44.7492 53.8949 45.1863 53.8949 45.9147C54.7733 83.6469 55.0661 126.332 50.9668 137.404L121.095 136.385C125.341 117.154 128.562 82.6271 129.44 45.9147Z" fill="#EFF3FB"/>
<g filter="url(#filter0_d_1340_22095)">
<path d="M129.293 44.8949C129.293 44.8949 129.147 50.5766 127.39 86.852C127.39 87.1433 127.39 87.289 127.39 87.5804C125.194 123.127 93.5703 130.557 89.7638 130.994C88.0069 131.14 84.6396 131.431 78.637 131.431C71.1703 131.723 59.7507 131.868 41.8892 132.014C41.3036 132.014 40.8644 131.431 41.1572 130.849C53.4552 106.228 53.6016 45.0406 53.6016 45.0406L129.293 44.8949Z" fill="white"/>
</g>
<path d="M127.244 87.4347C125.194 122.982 93.4241 130.412 89.6175 130.849C87.8607 130.994 84.4933 131.286 78.4907 131.286C94.3025 124.001 102.794 110.89 102.648 100.692C110.261 101.275 123.437 100.692 127.244 87.4347Z" fill="#EAEEF9"/>
<path d="M109.382 38.1934C109.382 38.0477 109.382 38.0477 109.382 38.1934L108.65 37.465C108.65 37.465 108.211 37.6107 108.065 37.9021H96.6451C96.6451 37.6107 96.6451 37.465 96.6451 37.1736C96.6451 34.8427 94.5954 32.8031 92.2529 32.8031C89.9104 32.8031 87.8607 34.8427 87.8607 37.1736C87.8607 37.465 87.8607 37.6107 88.0071 37.7564H76.1483C75.5627 37.7564 74.9771 38.1934 74.9771 39.0675V42.8553C74.9771 45.769 77.0267 47.5172 79.8084 47.5172H104.112C107.04 47.5172 109.529 45.769 109.529 42.8553V38.9219C109.675 38.6305 109.529 38.3391 109.382 38.1934Z" fill="#1C3754"/>
<path d="M108.943 38.1934V41.9812C108.943 42.2726 108.943 42.4183 108.943 42.7097C108.504 45.1863 106.454 47.2259 103.819 47.2259H79.3693C76.734 47.2259 74.6843 45.1863 74.2451 42.7097C74.2451 42.4183 74.2451 42.2726 74.2451 41.9812V38.1934C74.2451 37.6107 74.6843 36.8823 75.4164 36.8823H87.4216C87.4216 36.5909 87.4216 36.4452 87.4216 36.2995C87.4216 33.9686 89.4713 31.929 91.8138 31.929C94.1563 31.929 96.2059 33.9686 96.2059 36.2995C96.2059 36.5909 96.2059 36.7366 96.2059 36.8823H108.211C108.504 37.028 108.943 37.465 108.943 38.1934Z" fill="url(#paint0_linear_1340_22095)"/>
<path d="M91.5209 38.3391C92.6921 38.3391 93.5705 37.465 93.5705 36.2995C93.5705 35.1341 92.6921 34.26 91.5209 34.26C90.3496 34.26 89.4712 35.1341 89.4712 36.2995C89.4712 37.465 90.496 38.3391 91.5209 38.3391Z" fill="#EAEEF9"/>
<path d="M108.797 42.7097C108.358 45.1863 106.308 47.2259 103.673 47.2259H79.3693C76.734 47.2259 74.6843 45.1863 74.2451 42.7097H108.797Z" fill="#9AA1B2"/>
<path d="M71.9027 86.9977C74.2452 86.9977 76.002 85.1038 76.002 82.9185C76.002 80.5875 74.0988 78.8393 71.9027 78.8393C69.5602 78.8393 67.8033 80.7332 67.8033 82.9185C67.6569 85.1038 69.5602 86.9977 71.9027 86.9977Z" fill="#989FB0"/>
<path d="M104.405 86.852C106.747 86.852 108.504 84.9581 108.504 82.7728C108.504 80.4419 106.601 78.6937 104.405 78.6937C102.208 78.6937 100.305 80.5876 100.305 82.7728C100.305 84.9581 102.062 86.852 104.405 86.852Z" fill="#989FB0"/>
<path d="M92.1066 91.3682H84.2007V93.2621H92.1066V91.3682Z" fill="#989FB0"/>
<path d="M171.019 45.332C174.24 60.4831 173.801 76.5084 169.409 91.3682C168.384 94.4276 167.359 97.7783 165.163 100.109C162.088 103.751 156.525 105.354 151.986 104.188C147.301 103.023 143.495 98.9438 142.616 93.9905C141.884 90.9311 142.909 87.289 145.544 85.3951C148.326 83.6469 152.279 84.084 154.622 86.2692C157.257 88.4545 158.282 91.8052 158.135 95.0103C157.989 98.2154 156.818 101.42 155.207 104.188C150.376 113.221 141.592 120.359 131.49 123.564C124.023 125.895 115.971 125.895 108.504 123.856" stroke="#C9D4E2" stroke-width="2" stroke-miterlimit="10" stroke-dasharray="4 4"/>
<path d="M177.168 40.9614C176.729 42.564 174.972 43.1467 173.215 42.1269C171.312 41.2528 169.995 40.5244 170.287 39.0675C170.727 37.6107 172.483 37.465 174.533 37.3193C177.022 37.028 177.461 39.3589 177.168 40.9614Z" fill="#DAE2EB"/>
<path d="M162.967 42.4183C163.699 43.7294 165.749 44.6035 167.213 43.2924C168.823 41.8355 170.141 40.8158 169.409 39.3589C168.677 38.0478 167.506 38.4848 165.017 38.7762C162.967 39.2132 162.089 40.9614 162.967 42.4183Z" fill="#DAE2EB"/>
<path d="M169.409 37.028C170.434 36.8823 171.458 37.465 171.751 38.3391C171.898 38.6305 172.044 39.0675 172.044 39.3589C172.337 41.3985 171.605 43.1467 170.434 43.2924C169.116 43.5838 167.798 42.1269 167.652 40.233C167.652 39.6503 167.652 39.3589 167.652 38.9219C167.798 37.9021 168.384 37.1736 169.409 37.028C169.555 37.028 169.409 37.028 169.409 37.028Z" fill="#989FB0"/>
<defs>
<filter id="filter0_d_1340_22095" x="19.064" y="33.8949" width="132.229" height="131.119" filterUnits="userSpaceOnUse" color-interpolation-filters="sRGB">
<feFlood flood-opacity="0" result="BackgroundImageFix"/>
<feColorMatrix in="SourceAlpha" type="matrix" values="0 0 0 0 0 0 0 0 0 0 0 0 0 0 0 0 0 0 127 0" result="hardAlpha"/>
<feOffset dy="11"/>
<feGaussianBlur stdDeviation="11"/>
<feColorMatrix type="matrix" values="0 0 0 0 0.397708 0 0 0 0 0.47749 0 0 0 0 0.575 0 0 0 0.27 0"/>
<feBlend mode="normal" in2="BackgroundImageFix" result="effect1_dropShadow_1340_22095"/>
<feBlend mode="normal" in="SourceGraphic" in2="effect1_dropShadow_1340_22095" result="shape"/>
</filter>
<linearGradient id="paint0_linear_1340_22095" x1="74.287" y1="39.5793" x2="108.977" y2="39.5793" gradientUnits="userSpaceOnUse">
<stop stop-color="#B0BACC"/>
<stop offset="1" stop-color="#969EAE"/>
</linearGradient>
</defs>
</svg> 